<svg xmlns="http://www.w3.org/2000/svg" fill="none" viewBox="0 0 304 64" height="64" width="304">
<path d="M0 0h304v64H0V0Zm96.24 16.11v31.78c0 1.436-1.153 2.59-2.588 2.59h-5.178c-1.436 0-2.59-1.154-2.59-2.59V19.308l-12.531 28.37c-.46.989-1.38 1.794-2.534 1.794h-.604c-1.153 0-2.074-.805-2.534-1.794L58.156 19.308V47.89c0 1.436-1.154 2.59-2.59 2.59h-5.178C48.952 50.48 47.8 49.326 47.8 47.89V16.11c0-1.435 1.153-2.589 2.588-2.589h5.447c1.216 0 2.127.678 2.534 1.687l12.152 27.821 12.14-27.82c.407-1.01 1.319-1.688 2.535-1.688h5.447c1.435 0 2.588 1.154 2.588 2.59Zm36.966 32.045c1.435 0 2.589 1.153 2.589 2.588v1.296c0 1.436-1.154 2.59-2.589 2.59H116.5c-1.436 0-2.59-1.154-2.59-2.59v-1.296c0-1.435 1.154-2.588 2.59-2.588h16.706Zm15.423-17.648v16.351c0 1.436 1.153 2.59 2.588 2.59h5.178c1.436 0 2.59-1.154 2.59-2.59V30.751c0-5.083-2.907-8.423-7.482-8.423-4.228 0-6.586 2.906-7.212 5.072h-1.794v-4.665c0-1.435-1.154-2.589-2.589-2.589h-3.646c-1.435 0-2.588 1.154-2.588 2.589v21.912c0 1.436 1.153 2.59 2.588 2.59h5.178c1.436 0 2.59-1.154 2.59-2.59V31.914h1.153c.756.054 1.153.59 1.542 1.596Zm42.83-11.233v27.584c0 1.436-1.153 2.59-2.588 2.59h-4.496c-1.154 0-2.02-.594-2.427-1.687l-12.356-26.388v25.481c0 1.436-1.153 2.59-2.588 2.59h-5.178c-1.436 0-2.59-1.154-2.59-2.59V9.274c0-1.435 1.154-2.589 2.59-2.589h5.178c1.153 0 2.018.605 2.426 1.687l12.356 26.665V8.687c0-1.435 1.154-2.589 2.588-2.589h4.496c1.435 0 2.588 1.154 2.588 2.589Zm38.614 15.315c0-5.244-2.96-10.488-8.475-10.488-5.083 0-8.206 4.557-8.475 8.422h14.95Zm4.869 4.442h-19.8c.269 5.136 4.174 9.291 9.665 9.291 3.905 0 6.693-1.955 8.206-4.665l3.43 2.311c-2.127 3.686-6.151 6.854-11.636 6.854-9.612 0-14.558-8.1-14.558-16.298 0-8.423 5.555-16.566 14.234-16.566 8.423 0 13.585 7.643 13.585 15.706v3.367Zm33.424-19.757v27.584c0 1.436-1.153 2.59-2.588 2.59h-4.496c-1.154 0-2.02-.594-2.427-1.687l-12.356-26.388v25.481c0 1.436-1.153 2.59-2.588 2.59h-5.178c-1.436 0-2.59-1.154-2.59-2.59V9.274c0-1.435 1.154-2.589 2.59-2.589h5.178c1.153 0 2.019.605 2.426 1.687l12.356 26.665V8.687c0-1.435 1.154-2.589 2.588-2.589h4.496c1.435 0 2.588 1.154 2.588 2.589Zm19.432 4.911c-2.8 0-4.503 1.688-5.136 3.484h-1.153v-2.853c0-1.381-1.153-2.534-2.534-2.534h-3.13c-1.435 0-2.588 1.153-2.588 2.588v21.912c0 1.436 1.153 2.59 2.588 2.59h5.178c1.436 0 2.59-1.154 2.59-2.59V31.43c.405-.944 1.207-1.63 2.48-1.63 1.542 0 2.481.999 2.481 2.588v17.503c0 1.436 1.59 2.59 2.59 2.59h5.178c1.435 0 2.588-1.154 2.588-2.59V30.217c0-5.136-2.907-8.26-7.858-8.26Zm36.192 10.381c0-5.244-2.961-10.488-8.475-10.488-5.083 0-8.206 4.557-8.475 8.422h14.95Zm4.868 4.442h-19.799c.269 5.136 4.174 9.291 9.665 9.291 3.905 0 6.693-1.955 8.206-4.665l3.43 2.311c-2.127 3.686-6.15 6.854-11.636 6.854-9.612 0-14.558-8.1-14.558-16.298 0-8.423 5.555-16.566 14.234-16.566 8.422 0 13.585 7.643 13.585 15.706v3.367ZM287.84 14.613l-12.248 31.992c-.46 1.18-1.542 1.955-2.751 1.955h-.54c-1.208 0-2.291-.775-2.75-1.955L269.6 36.345l-9.988-21.732c-.538-1.179.216-2.588 1.543-2.588h5.295c1.208 0 2.235.73 2.75 1.892l4.911 10.91 6.478-16.868c.405-1.008 1.318-1.687 2.534-1.687h5.122c1.327 0 2.074 1.409 1.543 2.588Z" fill="#000"/>
</svg>
