<svg xmlns="http://www.w3.org/2000/svg" viewBox="0 0 116 28" fill="#000000" width="100" height="24">
<path d="M58.13 25.74h10.83V2.23H58.13v23.51Zm-47 0h10.83V2.23H11.13v23.51Zm23.1 0h10.83V2.23H34.23v23.51Zm56.19 0H101.2V12.3h8.13v13.44Zm-45-12.52H69.3V2.23H45.33v10.99ZM105.57 2.23h5.13v23.51h-5.13V2.23ZM88.34 10.36c-3.06 0-5.04 1.83-5.04 4.08v11.3h5.04v-10.1h.97l3.02 10.1h5.04l-3.29-11.63c.85-.54 2.33-1.73 3.52-3.62V2.23H88.34v8.13Zm-83.21 0c-3.06 0-5.04 1.83-5.04 4.08v11.3H5.13v-10.1H6.1l3.02 10.1h5.04L10.87 14.1c.85-.54 2.33-1.73 3.52-3.62V2.23H5.13v8.13ZM45.33 7.2h8.13V2.23h-8.13v4.97Z"/>
</svg>
